<svg id="Capa_1" data-name="Capa 1" xmlns="http://www.w3.org/2000/svg" xmlns:xlink="http://www.w3.org/1999/xlink" viewBox="0 0 215.43 170.08"><defs><style>.cls-1{fill:#727176;}.cls-2{fill:#275096;}.cls-3{fill:url(#radial-gradient);}</style><radialGradient id="radial-gradient" cx="131.22" cy="85.17" r="74.15" gradientUnits="userSpaceOnUse"><stop offset="0" stop-color="#393534"/><stop offset="0.5" stop-color="#fff"/><stop offset="1"/></radialGradient></defs><title>logoIIHEMSA</title><path class="cls-1" d="M205.75,172.91h-190C3,172.91,3,163.36,3,160.21V148.75L6.07,152l0,8.24c0,3.36,0,9.61,9.6,9.61h190c9.6,0,9.6-6.25,9.6-9.61V15.53c0-9.6-6.24-9.6-9.6-9.6h-190c-9.6,0-9.6,6.25-9.6,9.6v6.83L3,20.49v-5c0-3.14,0-12.7,12.7-12.7h190c3.14,0,12.7,0,12.7,12.7V160.21C218.45,163.36,218.45,172.91,205.75,172.91Z" transform="translate(-3.01 -2.83)"/><path class="cls-1" d="M200.36,168.86H18.77c-12.15,0-12.15-9.15-12.15-12.16V153l3.09,2.16v1.57c0,3.17,0,9.07,9.06,9.07H200.36c9.07,0,9.07-5.9,9.07-9.07V19c0-9.06-5.9-9.06-9.07-9.06H19.55c-9.06,0-9.06,5.9-9.06,9.06v6.6l-3.1-3.28V19c0-3,0-12.15,12.16-12.15H200.36c3,0,12.16,0,12.16,12.15V156.7C212.52,159.71,212.52,168.86,200.36,168.86Z" transform="translate(-3.01 -2.83)"/><rect class="cls-2" x="29.12" y="39.94" width="5.67" height="59.27"/><rect class="cls-2" x="37.36" y="39.94" width="5.67" height="59.27"/><polyline class="cls-2" points="61.07 87.36 50.51 87.36 50.51 99.21 45.1 99.21 45.1 39.94 50.25 39.94 50.25 80.14 61.07 80.14 61.07 39.94 65.97 39.94 65.97 110.55 60.81 110.55"/><polygon class="cls-2" points="86.07 46.9 86.07 39.94 68.29 39.94 68.29 99.21 94.83 99.21 94.83 92 72.93 92 72.93 87.1 86.33 87.1 86.33 80.4 73.19 80.4 73.19 47.16 86.07 46.9"/><polyline class="cls-2" points="97.41 99.21 102.82 99.21 102.82 70.61 110.03 102.56 117.25 70.61 117.25 110.55 122.66 110.55 122.66 39.94 117.25 39.94 110.03 81.95 102.56 39.94 97.41 39.94"/><path class="cls-2" d="M143.46,42.78l3.09,3.86-5.67,13.92s17-4.64,17.52,19.84c0,0,.26,22.94-16.23,24A22.75,22.75,0,0,1,127.74,92l2.83-4.13s3.87,9.54,12.5,9.8c0,0,8.89,1.8,11.73-16.5,0,0,0-21.39-15.72-12.37,0,0-5.16,3.36-4.9-3.6Z" transform="translate(-3.01 -2.83)"/><path class="cls-2" d="M174.12,42.78H169l-9.54,59.27h4.9l1.8-11.86H176.7l2.58,23.2h5.15Zm-6.7,39.68,4.51-25.77,3.74,25.77Z" transform="translate(-3.01 -2.83)"/><path class="cls-3" d="M140.62,27.32s7.22-.26,9.54-6.19l6.7,2.06-1.29,9.54,8,4.89,9.53-3.6,7.22,6.44L175,48.59l5.34,7.33h9.53l4.64,9.28L187,70.35l.77,9.28,10.05,2.83v9l-9.53,3.61-1.81,9.28,7.48,6.44L191.39,117,186,115.45l-6.45,3.35L173.61,126l4.38,8.25-3.35,3.09-6.44-4.12L153.51,141l.77,8.25-3.35,1.54-5.67-8.24-6.7,3.09,5.67,8.24,17.52-6.18.78-9.53,6.7,3.86s12.11-4.12,15.2-10.05l-4.12-9,2.83-3.61,6.44,1.81,7-3.1,4.38-9.79L194,102.05l.77-7.47a108.59,108.59,0,0,1,10.31-4.39V79.63l-9.8-3.35-1.54-8L202,62.1l-4.89-10.56-9.28,1.29-5.15-7L187,37.62l-7.73-8-10.05,3.6-6.45-2.57L163,19.58l-9.27-3.09L146,19.58Z" transform="translate(-3.01 -2.83)"/><polygon class="cls-1" points="0.35 19.91 3.64 22.61 3.64 30.92 0.35 28.8 0.35 19.91"/><polygon class="cls-1" points="4.51 23.39 7.21 25.41 7.21 34.79 4.51 31.84 4.51 23.39"/><polygon class="cls-1" points="0.35 30.92 3.64 34.11 3.64 42.81 0.35 39.73 0.35 30.92"/><polygon class="cls-1" points="4.32 34.79 6.94 37.41 6.94 45.97 4.28 43.3 4.32 34.79"/><polygon class="cls-1" points="0.16 42.36 3.41 45.61 3.41 54.37 0.26 51.22 0.16 42.36"/><polygon class="cls-1" points="4.28 46.26 6.94 48.19 6.94 57.85 4.37 55.02 4.28 46.26"/><polygon class="cls-1" points="0.16 53.86 3.25 56.95 3.25 66.1 0.16 63.2 0.16 53.86"/><polyline class="cls-1" points="4.12 57.85 6.79 60.52 6.79 69.06 4.14 66.69 4.12 58.01"/><polygon class="cls-1" points="0.16 65.58 3.25 68.68 3.25 77.11 0.16 74.47 0.16 65.58"/><polygon class="cls-1" points="4.12 69.35 6.94 71.83 6.93 80.29 4.12 77.6 4.12 69.35"/><polygon class="cls-1" points="0.16 77.11 3.45 80.29 3.45 89.39 0.08 86.02 0.16 77.11"/><polygon class="cls-1" points="4.12 81.24 6.72 83.84 6.72 92.35 4.12 89.71 4.12 81.24"/><polygon class="cls-1" points="0.08 88.74 3.33 91.99 3.33 100.63 0.08 97.34 0.08 88.74"/><polygon class="cls-1" points="4.12 92.67 6.97 95.53 6.97 103.72 4.12 100.89 4.12 92.67"/><polygon class="cls-1" points="0.08 100.28 3.61 103.72 3.61 112.36 0.08 109.17 0.08 100.28"/><polygon class="cls-1" points="4.12 104.24 4.12 112.71 6.97 115.35 6.97 106.85 4.12 104.24"/><polygon class="cls-1" points="0.08 111.77 0.08 120.92 3.61 123.95 3.61 114.8 0.08 111.77"/><polygon class="cls-1" points="4.12 115.22 4.12 124.53 6.97 126.85 6.97 117.86 4.12 115.22"/><polygon class="cls-1" points="0.08 123.44 3.61 126.43 3.61 135 0.08 132.23 0.08 123.44"/><polygon class="cls-1" points="4.25 126.85 6.97 129.22 6.97 138.54 4.12 135.51 4.25 126.85"/><polygon class="cls-1" points="0.08 134.71 0.08 143.6 3.61 146.59 3.61 137.41 0.08 134.71"/><polygon class="cls-1" points="4.12 137.67 4.12 147.11 6.97 149.3 6.97 140.38 4.12 137.67"/></svg>