<?xml version="1.0" encoding="UTF-8"?>
<!DOCTYPE svg PUBLIC "-//W3C//DTD SVG 1.1//EN" "http://www.w3.org/Graphics/SVG/1.1/DTD/svg11.dtd">
<!-- Creator: CorelDRAW -->
<svg xmlns="http://www.w3.org/2000/svg" xml:space="preserve" width="1500mm" height="500mm" version="1.1" style="shape-rendering:geometricPrecision; text-rendering:geometricPrecision; image-rendering:optimizeQuality; fill-rule:evenodd; clip-rule:evenodd"
viewBox="0 0 150000 50000"
 xmlns:xlink="http://www.w3.org/1999/xlink"
 xmlns:xodm="http://www.corel.com/coreldraw/odm/2003">
 <defs>
  <style type="text/css">
   <![CDATA[
    .fil0 {fill:none}
    .fil3 {fill:#2E394F}
    .fil2 {fill:#333D56}
    .fil1 {fill:#7A7E8A}
   ]]>
  </style>
 </defs>
 <g id="Capa_x0020_1">
  <metadata id="CorelCorpID_0Corel-Layer"/>
  <path class="fil0" d="M41249.54 33445.92l0 -4834.77 728.43 0 0 4834.77 -728.43 0zm43172.96 0l0 -4808 3475.71 0c591.74,0 1054.26,118.93 1391.37,355.3 335.18,236.38 503.71,563.5 503.71,981.23 0,347.89 -131.1,645.23 -393.25,893.5 -264.04,248.32 -610.46,402.91 -1041.2,463.87l1513.13 2114.1 -831.41 0 -1515.07 -2105.16 -2350.13 0 0 2105.16 -752.86 0zm752.86 -2667.12l2674.13 0c380.13,0 668.59,-66.91 863.3,-200.72 196.6,-132.34 293.99,-328.59 293.99,-587.27 0,-251.26 -97.39,-448.98 -293.99,-588.74 -194.71,-141.22 -470.05,-211.07 -825.88,-211.07l-2711.55 0 0 1587.8zm-9849.61 2667.12l3347.24 -4808 705.37 0 3385.14 4808 -922.79 0 -927.1 -1293.46 -3773.75 0 -903.91 1293.46 -910.2 0zm2202.6 -1855.42l3007.25 0 -1509.95 -2128.93 -1497.3 2128.93zm-7939.93 1855.42l0 -4808 848.89 0 0 4254.92 4460.17 0 0 553.08 -5309.06 0zm-7457.59 -4808l0 3113.16c0,498.06 133.1,832.54 399.14,1003.54 266.15,169.47 787.69,254.2 1569.09,254.2 779.27,0 1300.81,-84.73 1564.79,-254.2 264.03,-171 394.96,-505.48 394.96,-1003.54l0 -3113.16 848.89 0 0 3273.75c0,591.68 -217.49,1016.89 -654.64,1274.1 -437.16,257.15 -1157.24,385.02 -2158.18,385.02 -1001.06,0 -1721.14,-127.87 -2158.3,-385.02 -437.15,-257.21 -654.64,-682.42 -654.64,-1274.1l0 -3273.75 848.89 0zm-8374.03 3959.11l398.02 -515.89c389.55,263.15 794.4,463.87 1214.55,603.63 420.21,138.22 836.94,208.13 1248.62,208.13 508.59,0 921.97,-93.68 1238.38,-282.51 318.05,-188.77 476.29,-431.15 476.29,-726.96 0,-234.91 -113.98,-428.22 -341.89,-579.86 -227.96,-151.64 -542.66,-242.32 -944.1,-272.04 -96.97,-8.94 -236.44,-17.82 -418.5,-25.3 -904.91,-56.49 -1520.72,-148.64 -1850.77,-279.45 -255.15,-108.57 -450.75,-246.79 -583.45,-416.32 -132.63,-170.95 -199.01,-361.25 -199.01,-573.86 0,-386.54 197.31,-704.72 593.68,-955.92 394.61,-249.8 908.32,-374.67 1539.49,-374.67 459.22,0 911.74,65.44 1359.07,197.72 447.45,132.34 872.66,328.59 1274.16,587.27l-398.03 499.53c-340.23,-239.38 -695.77,-419.27 -1070.02,-541.19 -374.19,-120.4 -758.62,-181.36 -1153.35,-181.36 -414.97,0 -756.92,71.38 -1027.43,212.6 -268.68,141.23 -403.08,318.18 -403.08,530.78 0,83.21 22.07,160.53 64.61,230.44 42.49,69.84 110.57,136.75 199.01,197.71 226.26,147.17 714.43,242.32 1466.29,282.46 345.36,17.83 614.16,35.71 802.93,56.49 557.96,55.02 1000.24,211.13 1326.82,469.81 324.88,258.68 488.24,575.38 488.24,952.99 0,448.98 -222.85,819.17 -670.18,1109.09 -447.4,289.87 -1034.31,435.57 -1758.98,435.57 -547.72,0 -1058.02,-69.85 -1527.48,-208.13 -471.29,-139.76 -918.68,-352.36 -1343.89,-640.76zm-8555.74 848.89l0 -4808 445.62 0 4432.64 3593.33 0 -3593.33 848.89 0 0 4808 -432.86 0 -4445.41 -3593.39 0 3593.39 -848.88 0zm-12901.76 0l0 -4808 445.63 0 4432.63 3593.33 0 -3593.33 848.89 0 0 4808 -432.86 0 -4445.4 -3593.39 0 3593.39 -848.89 0zm-7392.74 0l0 -4808 4541.55 0 0 553.08 -3823.94 0 0 1409.38 2313.7 0 0 553.02 -2313.7 0 0 1739.44 4059.61 0 0 553.08 -4777.22 0zm-7625.59 0l0 -4808 3313.35 0c560.55,0 1001.53,115.98 1322.82,347.89 323.12,231.9 483.76,550.08 483.76,952.98 0,417.74 -155.29,756.74 -467.69,1013.95 -310.58,258.68 -726.55,388.02 -1244.27,388.02l-2690.3 0 0 2105.16 -717.67 0zm717.67 -2667.12l2549.25 0c362.43,0 637.35,-66.91 822.94,-200.72 187.48,-132.34 280.34,-328.59 280.34,-587.27 0,-251.26 -92.86,-448.98 -280.34,-588.74 -185.59,-141.22 -448.04,-211.07 -787.28,-211.07l-2584.91 0 0 1587.8zm-334.42 -6614.58l3501.25 14.71 35.77 -12702.45 -3515.19 -27.19 -21.83 12714.93zm10917.47 8.59l48.78 -12712.1 -3527.25 -23.95c-111.75,2620.22 -4.18,5469.35 1.29,8093.81 2.83,1348.13 -35.07,2729.21 -18.48,4068.56 10.89,877.61 462.17,591.09 1439.63,579.91 682.72,-7.82 1376.49,10.66 2056.03,-6.23zm107121.13 10488.54l-7252.93 -2889.26c-932.09,2958.23 -2837.53,4124.29 -4162.77,5738.33l4666.95 5837.19 2180.19 -1882.9 -1423.21 -1876.9 2026.13 -2775.28 2519.66 756.97 1445.98 -2908.15zm-53939.97 -13750.52l-848.24 2040.96c1395.91,1268.39 6222.27,1548.54 8319.07,1153.05 2653.77,-500.53 5231.27,-3006.18 3005.13,-5516.43 -1769.22,-1995.06 -5288.7,-1709.13 -7020.67,-2945.34 -1750.21,-1249.2 854.36,-1970.93 2131.87,-1964.46 1969.7,9.95 2746.98,673.95 4189.55,913.74l895.2 -2122.05c-2880.32,-776.92 -5095.57,-1823.12 -8532.44,-645.58 -2728.03,934.62 -4033.61,3931.22 -1506.36,5809.94 1508.95,1121.75 6630.41,1671.07 6824.31,3061.03 373.48,2678.13 -6495.19,502 -7457.42,215.14zm-33414.27 -8542.09l27.66 11718.33c3467.47,160.76 6944.82,107.51 10416.05,93.39l36.31 -2384.5 -6900.27 4.18 -42.9 -2704.37 5864.84 -98.98 30.78 -2301.64 -5863.32 -21.3 -85.09 -2715.67 6660.37 -31.89 -6.53 -2453.81 -9455.42 -26.6c-909.56,-5.53 -680.42,16.53 -682.48,922.86zm-16072.76 11777.82l3450.99 28.78 145.41 -5145.71 5536.84 -19.6 31.6 5180.08 3413.92 -19.25 33.07 -12712.45 -3435.4 -18.95 -29.77 5113.82 -5593.81 58.26 -19.07 -5168.96 -3507.3 27.66 -26.48 12676.32zm29289.63 -10013.32l-2 10002.26 3231.85 42.01 101.04 -8423.51 3949.93 6378.32 2000.83 11.83 4030.43 -6397.8c102.68,1596.68 -9.71,8067.39 123.22,8431.34l3218.49 2.59 -39.66 -12697.98 -3888.2 -1.06 -4233.33 6987.25c-1121.16,-1434.51 -2448.45,-4070.8 -3439.63,-5710.97 -1067.85,-1767.04 -705.48,-1325 -3244.62,-1311.82 -2235.74,-0.35 -1801.46,-45.07 -1808.35,2687.54zm40426.11 -6260.28l1830.06 3589.63 -3779.63 7.36 -5830.83 12655.13 4333.24 33.66 1394.61 -3055.02 8713.33 -32.43 2003.59 4110.88 6088.46 608.86 -10259.7 -19815.8c-341.12,12.42 -3882.91,1632.46 -4493.13,1897.73zm1926.1 3717.79l3396.03 6996.31 -6412.93 -14.3 3016.9 -6982.01zm8390.15 -7318.06l62.55 3348.36 -3014.95 940.22 1968.17 4112.22c2071.74,-82.79 4231.91,-1099.86 8046.56,266.04 2223.67,796.22 4512.02,2262.33 5699.61,3539.9 3595.04,3867.37 4591.28,7320.89 3774.46,14081.64 858.89,361.84 6940.41,3039.2 7305.83,3009.42l1130.93 -4885.67 -3005.24 -936.33 -566.32 -5739.04 2663.3 -1335.88 -2575.33 -5646.36 -2634.46 1180.59 -3152.83 -3768.57 1748.86 -2895.79 -5328.36 -3228.03c-84.21,336.59 -1387.26,2088.33 -1679.19,2509.3l-4266.16 -1443.57 6 -3222.26c-1279.57,-354.18 -5012.84,-434.74 -6183.43,113.81z"/>
  <path class="fil1" d="M21651.17 29990.81c0,258.68 -92.86,454.93 -280.34,587.27 -185.59,133.81 -460.51,200.72 -822.94,200.72l-2549.25 0 0 -1587.8 2584.91 0c339.24,0 601.69,69.85 787.28,211.07 187.48,139.76 280.34,337.48 280.34,588.74zm-1056.85 -1352.89l-3313.35 0 0 4808 717.67 0 0 -2105.16 2690.3 0c517.72,0 933.69,-129.34 1244.27,-388.02 312.4,-257.21 467.69,-596.21 467.69,-1013.95 0,-402.9 -160.64,-721.08 -483.76,-952.98 -321.29,-231.91 -762.27,-347.89 -1322.82,-347.89z"/>
  <polygon class="fil1" points="29683.78,32892.84 25624.17,32892.84 25624.17,31153.4 27937.87,31153.4 27937.87,30600.38 25624.17,30600.38 25624.17,29191 29448.11,29191 29448.11,28637.92 24906.56,28637.92 24906.56,33445.92 29683.78,33445.92 "/>
  <polygon class="fil1" points="32299.3,28637.92 32299.3,33445.92 33148.19,33445.92 33148.19,29852.53 37593.59,33445.92 38026.45,33445.92 38026.45,28637.92 37177.56,28637.92 37177.56,32231.25 32744.93,28637.92 "/>
  <polygon class="fil1" points="41249.54,28611.15 41249.54,33445.92 41977.97,33445.92 41977.97,28611.15 "/>
  <polygon class="fil1" points="45201.06,28637.92 45201.06,33445.92 46049.94,33445.92 46049.94,29852.53 50495.35,33445.92 50928.21,33445.92 50928.21,28637.92 50079.32,28637.92 50079.32,32231.25 45646.68,28637.92 "/>
  <path class="fil1" d="M53994.94 29736.6c0,212.61 66.38,402.91 199.01,573.86 132.7,169.53 328.3,307.75 583.45,416.32 330.05,130.81 945.86,222.96 1850.77,279.45 182.06,7.48 321.53,16.36 418.5,25.3 401.44,29.72 716.14,120.4 944.1,272.04 227.91,151.64 341.89,344.95 341.89,579.86 0,295.81 -158.24,538.19 -476.29,726.96 -316.41,188.83 -729.79,282.51 -1238.38,282.51 -411.68,0 -828.41,-69.91 -1248.62,-208.13 -420.15,-139.76 -825,-340.48 -1214.55,-603.63l-398.02 515.89c425.21,288.4 872.6,501 1343.89,640.76 469.46,138.28 979.76,208.13 1527.48,208.13 724.67,0 1311.58,-145.7 1758.98,-435.57 447.33,-289.92 670.18,-660.11 670.18,-1109.09 0,-377.61 -163.36,-694.31 -488.24,-952.99 -326.58,-258.68 -768.86,-414.79 -1326.82,-469.81 -188.77,-20.78 -457.57,-38.66 -802.93,-56.49 -751.86,-40.14 -1240.03,-135.29 -1466.29,-282.46 -88.44,-60.96 -156.52,-127.87 -199.01,-197.71 -42.54,-69.91 -64.61,-147.23 -64.61,-230.44 0,-212.6 134.4,-389.55 403.08,-530.78 270.51,-141.22 612.46,-212.6 1027.43,-212.6 394.73,0 779.16,60.96 1153.35,181.36 374.25,121.92 729.79,301.81 1070.02,541.19l398.03 -499.53c-401.5,-258.68 -826.71,-454.93 -1274.16,-587.27 -447.33,-132.28 -899.85,-197.72 -1359.07,-197.72 -631.17,0 -1144.88,124.87 -1539.49,374.67 -396.37,251.2 -593.68,569.38 -593.68,955.92z"/>
  <path class="fil1" d="M61281.94 28637.92l0 3273.75c0,591.68 217.49,1016.89 654.64,1274.1 437.16,257.15 1157.24,385.02 2158.3,385.02 1000.94,0 1721.02,-127.87 2158.18,-385.02 437.15,-257.21 654.64,-682.42 654.64,-1274.1l0 -3273.75 -848.89 0 0 3113.16c0,498.06 -130.93,832.54 -394.96,1003.54 -263.98,169.47 -785.52,254.2 -1564.79,254.2 -781.4,0 -1302.94,-84.73 -1569.09,-254.2 -266.04,-171 -399.14,-505.48 -399.14,-1003.54l0 -3113.16 -848.89 0z"/>
  <polygon class="fil1" points="69588.42,28637.92 69588.42,33445.92 74897.48,33445.92 74897.48,32892.84 70437.31,32892.84 70437.31,28637.92 "/>
  <path class="fil1" d="M78672.99 28637.92l-3347.24 4808 910.2 0 903.91 -1293.46 3773.75 0 927.1 1293.46 922.79 0 -3385.14 -4808 -705.37 0zm352.66 823.65l1509.95 2128.93 -3007.25 0 1497.3 -2128.93z"/>
  <path class="fil1" d="M84422.5 28637.92l0 4808 752.86 0 0 -2105.16 2350.13 0 1515.07 2105.16 831.41 0 -1513.13 -2114.1c430.74,-60.96 777.16,-215.55 1041.2,-463.87 262.15,-248.27 393.25,-545.61 393.25,-893.5 0,-417.73 -168.53,-744.85 -503.71,-981.23 -337.11,-236.37 -799.63,-355.3 -1391.37,-355.3l-3475.71 0zm752.86 2140.88l0 -1587.8 2711.55 0c355.83,0 631.17,69.85 825.88,211.07 196.6,139.76 293.99,337.48 293.99,588.74 0,258.68 -97.39,454.93 -293.99,587.27 -194.71,133.81 -483.17,200.72 -863.3,200.72l-2674.13 0z"/>
  <path class="fil1" d="M128449.89 31772.09c-932.09,2958.23 -2837.53,4124.29 -4162.77,5738.33l4666.95 5837.19 2180.19 -1882.9 -1423.21 -1876.9 2026.13 -2775.28 2519.66 756.97 1445.98 -2908.15 -7252.93 -2889.26z"/>
  <path class="fil2" d="M125069.75 16479.43c3595.04,3867.37 4591.28,7320.89 3774.46,14081.64 858.89,361.84 6940.41,3039.2 7305.83,3009.42l1130.93 -4885.67 -3005.24 -936.33 -566.32 -5739.04 2663.3 -1335.88 -2575.33 -5646.36 -2634.46 1180.59 -3152.83 -3768.57 1748.86 -2895.79 -5328.36 -3228.03c-84.21,336.59 -1387.26,2088.33 -1679.19,2509.3l-4266.16 -1443.57 6 -3222.26c-1279.57,-354.18 -5012.84,-434.74 -6183.43,113.81l62.55 3348.36 -3014.95 940.22 1968.17 4112.22c2071.74,-82.79 4231.91,-1099.86 8046.56,266.04 2223.67,796.22 4512.02,2262.33 5699.61,3539.9z"/>
  <path class="fil3" d="M100900.76 18572.76l3016.9 -6982.01 3396.03 6996.31 -6412.93 -14.3zm15843.63 7218.27l-10259.7 -19815.8c-341.12,12.42 -3882.91,1632.46 -4493.13,1897.73l1830.06 3589.63 -3779.63 7.36 -5830.83 12655.13 4333.24 33.66 1394.61 -3055.02 8713.33 -32.43 2003.59 4110.88 6088.46 608.86z"/>
  <path class="fil3" d="M85218.14 15643.07c-1750.21,-1249.2 854.36,-1970.93 2131.87,-1964.46 1969.7,9.95 2746.98,673.95 4189.55,913.74l895.2 -2122.05c-2880.32,-776.92 -5095.57,-1823.12 -8532.44,-645.58 -2728.03,934.62 -4033.61,3931.22 -1506.36,5809.94 1508.95,1121.75 6630.41,1671.07 6824.31,3061.03 373.48,2678.13 -6495.19,502 -7457.42,215.14l-848.24 2040.96c1395.91,1268.39 6222.27,1548.54 8319.07,1153.05 2653.77,-500.53 5231.27,-3006.18 3005.13,-5516.43 -1769.22,-1995.06 -5288.7,-1709.13 -7020.67,-2945.34z"/>
  <path class="fil3" d="M78219.24 24180.28l-39.66 -12697.98 -3888.2 -1.06 -4233.33 6987.25c-1121.16,-1434.51 -2448.45,-4070.8 -3439.63,-5710.97 -1067.85,-1767.04 -705.48,-1325 -3244.62,-1311.82 -2235.74,-0.35 -1801.46,-45.07 -1808.35,2687.54l-2 10002.26 3231.85 42.01 101.04 -8423.51 3949.93 6378.32 2000.83 11.83 4030.43 -6397.8c102.68,1596.68 -9.71,8067.39 123.22,8431.34l3218.49 2.59z"/>
  <path class="fil3" d="M51832.64 13958.18l6660.37 -31.89 -6.53 -2453.81 -9455.42 -26.6c-909.56,-5.53 -680.42,16.53 -682.48,922.86l27.66 11718.33c3467.47,160.76 6944.82,107.51 10416.05,93.39l36.31 -2384.5 -6900.27 4.18 -42.9 -2704.37 5864.84 -98.98 30.78 -2301.64 -5863.32 -21.3 -85.09 -2715.67z"/>
  <polygon class="fil3" points="44854.58,24170.86 44887.65,11458.41 41452.25,11439.46 41422.48,16553.28 35828.67,16611.54 35809.6,11442.58 32302.3,11470.24 32275.82,24146.56 35726.81,24175.34 35872.22,19029.63 41409.06,19010.03 41440.66,24190.11 "/>
  <path class="fil3" d="M28581.69 24172.81l48.78 -12712.1 -3527.25 -23.95c-111.75,2620.22 -4.18,5469.35 1.29,8093.81 2.83,1348.13 -35.07,2729.21 -18.48,4068.56 10.89,877.61 462.17,591.09 1439.63,579.91 682.72,-7.82 1376.49,10.66 2056.03,-6.23z"/>
  <polygon class="fil3" points="21165.47,24178.93 21201.24,11476.48 17686.05,11449.29 17664.22,24164.22 "/>
 </g>
</svg>
